<?xml version="1.0" encoding="UTF-8"?>
<svg id="Capa_1" data-name="Capa 1" xmlns="http://www.w3.org/2000/svg" version="1.1" xmlns:xlink="http://www.w3.org/1999/xlink" viewBox="0 0 158.6 58.5">
  <defs>
    <style>
      .cls-1 {
        fill: url(#linear-gradient);
      }

      .cls-1, .cls-2, .cls-3, .cls-4, .cls-5, .cls-6, .cls-7, .cls-8, .cls-9 {
        stroke-width: 0px;
      }

      .cls-2 {
        fill: url(#linear-gradient-6);
      }

      .cls-3 {
        fill: url(#linear-gradient-5);
      }

      .cls-4 {
        fill: #616160;
      }

      .cls-5 {
        fill: url(#linear-gradient-2);
      }

      .cls-6 {
        fill: url(#linear-gradient-7);
      }

      .cls-7 {
        fill: url(#linear-gradient-3);
      }

      .cls-8 {
        fill: url(#linear-gradient-8);
      }

      .cls-9 {
        fill: url(#linear-gradient-4);
      }
    </style>
    <linearGradient id="linear-gradient" x1="142.6" y1="71.1" x2="193.2" y2="71.1" gradientTransform="translate(70.3 30.4) rotate(-3.2) scale(.4) skewX(-3)" gradientUnits="userSpaceOnUse">
      <stop offset="0" stop-color="#dac872"/>
      <stop offset="0" stop-color="#cfba67"/>
      <stop offset="0" stop-color="#b5994d"/>
      <stop offset="0" stop-color="#9f7e37"/>
      <stop offset="0" stop-color="#8e6926"/>
      <stop offset=".1" stop-color="#835a1b"/>
      <stop offset=".1" stop-color="#7c5114"/>
      <stop offset=".2" stop-color="#7a4f12"/>
      <stop offset=".3" stop-color="#8d6418"/>
      <stop offset=".4" stop-color="#9b741c"/>
      <stop offset=".5" stop-color="#a07a1e"/>
      <stop offset=".5" stop-color="#a17c20"/>
      <stop offset=".6" stop-color="#c0a54c"/>
      <stop offset=".7" stop-color="#d3be67"/>
      <stop offset=".7" stop-color="#dac872"/>
      <stop offset=".8" stop-color="#d4c06c"/>
      <stop offset=".8" stop-color="#c4ad5c"/>
      <stop offset=".9" stop-color="#ab8d43"/>
      <stop offset="1" stop-color="#886120"/>
      <stop offset="1" stop-color="#7a4f12"/>
    </linearGradient>
    <linearGradient id="linear-gradient-2" x1="-62.3" y1="36.1" x2="-6.6" y2="36.1" gradientTransform="translate(56.1 56.7) rotate(175.9) scale(.4) skewX(-4.7)" xlink:href="#linear-gradient"/>
    <linearGradient id="linear-gradient-3" x1="85.5" y1="48.3" x2="98.7" y2="48.3" gradientTransform="matrix(1,0,0,1,0,0)" xlink:href="#linear-gradient"/>
    <linearGradient id="linear-gradient-4" x1="100.2" y1="48.3" x2="110.9" y2="48.3" gradientTransform="matrix(1,0,0,1,0,0)" xlink:href="#linear-gradient"/>
    <linearGradient id="linear-gradient-5" x1="54" y1="6" x2="54" y2="64.4" gradientTransform="matrix(1,0,0,1,0,0)" xlink:href="#linear-gradient"/>
    <linearGradient id="linear-gradient-6" x1="90" y1="6" x2="90" y2="64.4" gradientTransform="matrix(1,0,0,1,0,0)" xlink:href="#linear-gradient"/>
    <linearGradient id="linear-gradient-7" x1="106.1" y1="6" x2="106.1" y2="64.4" gradientTransform="matrix(1,0,0,1,0,0)" xlink:href="#linear-gradient"/>
    <linearGradient id="linear-gradient-8" x1="121.1" y1="6" x2="121.1" y2="64.4" gradientTransform="matrix(1,0,0,1,0,0)" xlink:href="#linear-gradient"/>
  </defs>
  <g>
    <path class="cls-4" d="M110.9,52.1h-1.1c.3-.3.5-.7,1-1.4l2.9-4.9c.4-.6.6-1,.7-1.3h.9l1.1,6v.6c.2.5.3.9.4,1.1h-1.2c0-.1,0-.2,0-.3,0-.3,0-.6-.2-1.4v-.7c0,0-.4,0-.4,0-.4,0-.8,0-1.1,0-.5,0-1,0-1.8,0l-.7,1.2c-.3.5-.4.7-.6,1.1ZM114.7,45.4l-2.1,3.7h.2s.5,0,.5,0h.7s.7,0,.7,0h.6s-.5-3.7-.5-3.7Z"/>
    <path class="cls-4" d="M121.2,44.5l2.1,6.6,1-5v-.6c.2-.4.3-.7.3-.9h.9c-.1.3-.2.8-.4,1.5l-1.3,6.1h-.9l-2.2-6.8-1.1,5.2v.6c-.2.3-.3.7-.3.9h-.9c.1-.3.2-.7.4-1.5l1-4.6c.2-.9.2-1.2.3-1.5h1.1ZM124.3,42.4l.5.2c-.5.7-.8.9-1.2.9s-.4,0-.7-.2c-.3-.1-.4-.1-.5-.1-.2,0-.4.1-.7.4l-.5-.2c.4-.6.9-.9,1.3-.9s.4,0,.7.2c.2.1.3.1.5.1.2,0,.4-.1.7-.4Z"/>
    <path class="cls-4" d="M126.9,49.8c0-3.1,1.7-5.5,4-5.5s2.3,1,2.3,2.6c0,3-1.8,5.4-4,5.4s-2.3-.9-2.3-2.5ZM127.8,49.8c0,1.1.6,1.7,1.5,1.7s1.9-.6,2.4-1.7c.4-.9.7-2,.7-3s-.5-1.9-1.5-1.9-1.7.5-2.2,1.3c-.5.9-.9,2.2-.9,3.5Z"/>
    <path class="cls-4" d="M134.1,52l.3-.7c.5.2.9.3,1.4.3,1.3,0,2.1-.7,2.1-1.7s-.2-.8-1.2-1.4c-.8-.5-1-.7-1.2-1-.2-.2-.2-.5-.2-.9,0-1.4,1.2-2.4,2.8-2.4s.9,0,1.3.2l-.3.7c-.3-.1-.7-.2-1.1-.2-1,0-1.8.6-1.8,1.5s.2.7,1.1,1.2c.8.5,1,.6,1.2,1,.2.3.3.6.3,1,0,1.5-1.3,2.6-3.1,2.6s-1,0-1.7-.3Z"/>
  </g>
  <path class="cls-1" d="M125.7,53.4c0,0,.2,0,.3.1,3.2,1.4,6.5,2.8,9.5,3.4,1.7.4,3.1.4,4.4.3,1.4-.2,2.6-.7,3.6-1.6,0,0,.2-.2.3-.3.3-.4.8-1,.8-1.9,0-.7-.3-1.3-.8-1.9-.4-.5-1-.6-1.3-.9-.3-.2.4-.5,1,0,0,0,.2.1.3.2.8.8,1.2,1.6,1.2,2.5,0,1.4-1.2,2.4-1.3,2.5-1,.9-2.3,1.5-3.8,1.7-1.3.2-2.8,0-4.5-.3-2.7-.6-8.1-2.8-9.6-3.4s-.3-.1-.3-.1l.2-.4Z"/>
  <path class="cls-5" d="M82.3,43c-1.6-.5-3.3-1.2-5.1-2-3.1-1.3-6.2-2.6-9.2-3.2-1.6-.3-2.9-.4-4.1-.2-1.3.2-2.4.7-3.4,1.5,0,0-.2.2-.3.3-.3.3-.8,1-.8,1.8,0,.6.2,1.2.8,1.8.4.4.9.6,1.2.8.2.2-.4.5-1,0,0,0-.2-.1-.3-.2-.8-.7-1.1-1.5-1.1-2.4,0-1.3,1.2-2.3,1.3-2.4,1-.9,2.2-1.4,3.6-1.6,1.2-.2,2.6-.1,4.3.2,3,.6,6.2,1.9,9.2,3.2,1.9.8,3.7,1.6,5.4,2.1"/>
  <g>
    <path class="cls-7" d="M91.8,48.1l-3.1-5.5h.8l2.8,5,5.4-5h1l-6,5.5,3.2,5.7h-.8l-2.9-5.3-5.7,5.3h-1l6.3-5.8Z"/>
    <path class="cls-9" d="M100.2,42.7h.8l1.8,10.5,7.4-10.5h.8l-8.1,11.4h-.6l-2.1-11.4Z"/>
  </g>
  <g>
    <path class="cls-4" d="M67,44.5h1.3l.3,6.7,3.4-6.7h1.2c0,.2-.1.4-.2.9l-1,5.5c0,.4-.1.9-.1,1s0,.1,0,.2h-1c0-.1.1-.3.2-.6v-.4c0,0,1.1-5.8,1.1-5.8l-3.4,6.8h-.9l-.3-6.9-1.5,5.6c-.2.8-.3,1-.3,1.3h-.9c.1-.2.2-.4.3-.9v-.6c.1,0,1.4-4.7,1.4-4.7.2-.7.3-1.1.3-1.4Z"/>
    <path class="cls-4" d="M75.6,52.1h-1c.1-.3.2-.7.4-1.5l1-4.6c.2-.8.2-1.2.3-1.5h1c-.1.3-.2.7-.4,1.5l-1,4.6c-.2.8-.2,1.2-.3,1.5Z"/>
    <path class="cls-4" d="M77.8,52l.3-.7c.5.2.9.3,1.4.3,1.3,0,2.1-.7,2.1-1.7s-.2-.8-1.2-1.4c-.8-.5-1-.7-1.2-1-.2-.2-.2-.5-.2-.9,0-1.4,1.2-2.4,2.8-2.4s.9,0,1.3.2l-.3.7c-.3-.1-.7-.2-1.1-.2-1,0-1.8.6-1.8,1.5s.2.7,1.1,1.2c.8.5,1,.6,1.2,1,.2.3.3.6.3,1,0,1.5-1.3,2.6-3.1,2.6s-1,0-1.7-.3Z"/>
  </g>
  <g>
    <path class="cls-3" d="M73.8,8.2l-3.7-1c-1.9,1.7-5.5,6.9-9.8,16.2-4.6,10-4.3,13.9-3,13.6,2-.4,5.2-4.2,7.1-6.5,6.7-8,11.7-15.6,15.1-19.7,2.7-3.4,6.6-6.9,11.2-6.9s3,.9,3.6,2c0,.3-.3.4-.5.1-.5-1-1.8-1.8-3.3-1.3-1.9.5-4.4,3.5-6,6.4l-12.9,23.3c-1.8,3.3,1.6,2,3.9.5,3-2,5-4.3,6.9-7.4.3-.5.7-.2.4.2-2.6,4.5-7,8.9-11.4,9.8-1,.3-2.5.4-3.2-.6-.7-.9-.8-2.9.8-5.8l10.8-19.2-7.1,9.6c-2.9,3.9-12.5,16.7-15.6,16.2-2.1-.3-3.1-2.2-2.9-5.3.2-3.2,1.4-7.3,3.5-11.4,1.1-2.1,2.3-4.3,3.6-6.4-2,2.5-4.6,5.9-6.9,8.8-5.9,7.6-13.1,17.1-21.1,20.5l-2.3.8c5.1,8.2,16,8.5,21.3,2.5.7-.8.9-.4.3.3-5.7,6.6-17.3,6.4-23.7-2.3-5.2,1-11.2.2-14.8-4.2-.9-1-1.3-3,.8-3.6,1.8,6.3,7.8,8.1,13.5,7.1-1.3-1.9-2.2-4.1-2.9-6.7-7.7-.4-9.8-7.8-8.1-14.4,2.2-7.8,8-14,15.7-17.2,10-4.1,24.1-3.6,35.1-.5,4.1-1.7,6.5-.2,5.5,2.5ZM30.7,44.1c.8-.2,1.6-.5,2.4-.8,7.3-3.1,14-11.6,20.7-20.5l6-8c1.9-2.5,4.7-6.3,7.5-8.1-9.5-3-24.5-3.7-33,1.1-7,4.1-11.8,11.5-12.9,17.3-.9,4.7-.3,10,3.9,11.4-.2-1-.3-2.1-.4-3.3-.2-4.7,2-12.5,7.3-17.9,10.3-10.3,20.1-6.1,15,6.5-2.4,6-7.7,12.6-14.7,14.9-1.4.4-2.6.8-3.8.9.4,2.5,1.1,4.7,2.1,6.5ZM28.5,36.7c.7,0,1.4-.2,2.2-.4,8.4-2.1,13.2-9.3,15.5-14.6,4.2-9.8-1.3-15.4-10.1-6-5.5,5.8-8.4,14.5-7.6,21Z"/>
    <path class="cls-2" d="M88.8,35.9c0,.1.2.2.4.2,1.6.5,3.8-.5,5.2-1.5,1.9-1.5,4.6-4.3,6.2-7.2.2-.4.6-.2.4.2-1.8,3.1-3.9,5.7-6.1,7.5-2.5,2-5,2.7-6.6,2.6-.7,0-1.3-.3-1.7-.5-1.2.4-2.2.6-3.6.6-4.9,0-4.9-3.9-2.2-8.8,2.7-4.9,7.1-8.8,12-8.8s5,3.9,2.3,8.8c-1.5,2.6-3.6,5.3-6.3,7.1ZM85.5,36c-.7-1.6.9-3.7,3.7-3.8,1.8-2.4,3.2-4.9,4.1-7.6.8-2.6.1-3.6-1.1-3.6s-5,3.5-7.5,8c-2.5,4.5-3.2,8.1-1.4,8.1s1.1-.2,2.2-1Z"/>
    <path class="cls-6" d="M103.5,31.1l2.1-3.8c.8-1.6,1.1-2.7-.7-4.1l-.9-.7c-1.6,3.1-3.6,6.3-6.1,9.3-.4.4-.7,0-.3-.3,2.2-2.9,4.1-6.1,5.8-9.6-2.5-2,.9-5.9,3.1-5.9-.5,1.8-1.1,3.7-2.1,5.8l2.5,1.9c1.1.8,3.6,2.6,1.3,6.8l-2.2,3.7c-1.9,3.3.3,2.1,2.4.4,1.9-1.5,4.6-4.4,6.2-7.4.3-.4.7-.2.4.2-1.4,2.4-2.8,4.2-4.3,5.8-2.5,2.6-4.7,4.2-6.6,4.2s-3.1-2-.4-6.5Z"/>
    <path class="cls-8" d="M124.2,20.1c3,0,5.2,1.8,3.1,5-1.9,3-7.2,4.7-11.8,5.4-1,2.4-1,4.6.4,5.5,2.4,1.4,6,.2,8.8-1.9,2.2-1.8,4.2-4,5.9-6.7.3-.4.7-.2.4.2-1.6,2.7-3.5,5.1-6,7.1-3,2.3-6.3,3.7-10.1,2.6-2.7-.7-4.8-3.9-2.6-8.7,2.1-4.6,6.7-8.5,12-8.5ZM117.1,27.3c-.5.9-1,1.8-1.5,2.6,3.3-.7,6.1-2.5,7.9-5.4,1.3-2.1,1.3-3.7.2-3.7s-4.3,2.8-6.6,6.5Z"/>
  </g>
</svg>