<svg id="Capa_1" data-name="Capa 1" xmlns="http://www.w3.org/2000/svg" xmlns:xlink="http://www.w3.org/1999/xlink" viewBox="0 0 81.91 34.62"><defs><style>.cls-1{fill:url(#linear-gradient);}.cls-2{fill:url(#linear-gradient-2);}.cls-3{fill:url(#linear-gradient-3);}.cls-4,.cls-9{font-size:5px;fill:#616160;font-family:Gotham-Bold, Gotham;font-weight:700;}.cls-4{letter-spacing:0.08em;}.cls-5{fill:url(#linear-gradient-4);}.cls-6{fill:url(#linear-gradient-5);}.cls-7{fill:url(#linear-gradient-6);}.cls-8{fill:url(#linear-gradient-7);}.cls-9{letter-spacing:0.08em;}</style><linearGradient id="linear-gradient" x1="17.28" y1="20.61" x2="44.57" y2="-0.03" gradientUnits="userSpaceOnUse"><stop offset="0.01" stop-color="#dcc973"/><stop offset="0.01" stop-color="#d2bc69"/><stop offset="0.03" stop-color="#b79b4e"/><stop offset="0.06" stop-color="#a18038"/><stop offset="0.08" stop-color="#906a27"/><stop offset="0.11" stop-color="#845b1b"/><stop offset="0.14" stop-color="#7d5314"/><stop offset="0.18" stop-color="#7b5012"/><stop offset="0.28" stop-color="#8e6518"/><stop offset="0.39" stop-color="#9c751c"/><stop offset="0.47" stop-color="#a17a1e"/><stop offset="0.48" stop-color="#a47d22"/><stop offset="0.6" stop-color="#c2a64e"/><stop offset="0.69" stop-color="#d5c069"/><stop offset="0.74" stop-color="#dcc973"/><stop offset="0.78" stop-color="#d6c26d"/><stop offset="0.83" stop-color="#c7af5e"/><stop offset="0.9" stop-color="#ad8f44"/><stop offset="0.97" stop-color="#8a6321"/><stop offset="1" stop-color="#7b5012"/></linearGradient><linearGradient id="linear-gradient-2" x1="27.39" y1="33.97" x2="54.68" y2="13.33" xlink:href="#linear-gradient"/><linearGradient id="linear-gradient-3" x1="31.09" y1="38.87" x2="58.38" y2="18.23" xlink:href="#linear-gradient"/><linearGradient id="linear-gradient-4" x1="47.02" y1="24.05" x2="85.2" y2="24.05" gradientTransform="matrix(0.39, -0.02, 0, 0.39, 48.94, 22.6)" xlink:href="#linear-gradient"/><linearGradient id="linear-gradient-5" x1="-91.37" y1="39.27" x2="-58.86" y2="39.27" gradientTransform="matrix(-0.43, 0.03, 0, -0.43, 6.39, 41.4)" xlink:href="#linear-gradient"/><linearGradient id="linear-gradient-6" x1="47.1" y1="27" x2="54.81" y2="27" xlink:href="#linear-gradient"/><linearGradient id="linear-gradient-7" x1="55.68" y1="27.03" x2="61.96" y2="27.03" xlink:href="#linear-gradient"/></defs><title>MIA</title><path class="cls-1" d="M32.05,21.63h-.38a7.48,7.48,0,0,1-5.16-1.7,3.43,3.43,0,0,1-.44-.47l-.68.6a36.24,36.24,0,0,1-6.1,4.81,17.19,17.19,0,0,1-8.92,2.84,12.09,12.09,0,0,1-2.32-.23,10,10,0,0,1-2.52-.79,10,10,0,0,1-2.21-1.3,8.32,8.32,0,0,1-2-2.22C-.17,20.86-.4,17.92.62,14.38,2.49,8,7.93,5.86,12.21,6.53A7.43,7.43,0,0,1,16,8.17a4.36,4.36,0,0,1,1.52,3.17v.27c-.1,1.6-1.4,2.19-1.35,1.62a7.93,7.93,0,0,0,.4-2.47,3.58,3.58,0,0,0-1.17-1.94A6.37,6.37,0,0,0,12.06,7.4a9.22,9.22,0,0,0-3,0A9.43,9.43,0,0,0,6,8.55a10.08,10.08,0,0,0-4.51,6.08c-1,3.26-.77,6,.55,8.07a7.45,7.45,0,0,0,1.82,2,11.34,11.34,0,0,0,2,1.2,12.94,12.94,0,0,0,1.79.62l.57.13a12.38,12.38,0,0,0,5.39-.23,18.71,18.71,0,0,0,5.23-2.29,35.13,35.13,0,0,0,6.65-5.38,7.17,7.17,0,0,1-.75-1.52,9.59,9.59,0,0,1-.54-2.29,13.29,13.29,0,0,1,0-2.52,9.4,9.4,0,0,1,2.64-5.58,13.86,13.86,0,0,1,4.71-3A22.52,22.52,0,0,1,38,2.32h0l.1,0h.39c.13,0,.8.08.6,1A80.18,80.18,0,0,0,37,13.61a5.35,5.35,0,0,1,.45-.85A32.86,32.86,0,0,1,41,8.05,70.17,70.17,0,0,1,46.5,2.49s0,0,0-.05a.75.75,0,0,1,.4-.15h.84a1,1,0,0,1,.83,1.42,81.29,81.29,0,0,0-4.89,9.92c-1.94,5.16-1.42,6.7-.65,7.18a1.86,1.86,0,0,0,.38.12c.75.15,2-.8,3.59-2.64A29.85,29.85,0,0,0,49.51,15a.42.42,0,0,1,.6-.13.45.45,0,0,1,.15.6,38.28,38.28,0,0,1-2.54,3.41c-1.7,2-3,3-4.11,3a.27.27,0,0,1-.15,0,2.52,2.52,0,0,1-.87-.22c-1.2-.52-2.94-2.14-1.52-7.08a45.76,45.76,0,0,1,3.21-8.12,26.31,26.31,0,0,0-6.06,6.83A6,6,0,0,0,37.1,16.6a1.59,1.59,0,0,0,.15.39.23.23,0,0,1-.12.33,1,1,0,0,1-.82-.1c-1.47-.77-.85-5.73-.1-9.72a83.17,83.17,0,0,1-9.8,11.64,3.51,3.51,0,0,0,.4.37,6.78,6.78,0,0,0,4.54,1.62,10.91,10.91,0,0,0,1.82-.42c.45-.08.15.82-1,.92Zm-6.21-3.26c.8-.8,1.57-1.65,2.34-2.55A79.27,79.27,0,0,0,34.81,7c1-1.52,1.7-2.74,2.09-3.44a16.45,16.45,0,0,0-8.19,2.37,13.32,13.32,0,0,0-1.55,1.3,9,9,0,0,0-2.49,5.28,12.59,12.59,0,0,0,0,2.42A9,9,0,0,0,25.84,18.37Z"/><path class="cls-2" d="M56.43,15.45a40.48,40.48,0,0,1-2.56,3.44c-1.7,2-3.07,3-4.14,3a1,1,0,0,1-.3,0,2.67,2.67,0,0,1-.85-.27c-1.74-.85-.67-3.74-.67-3.74a21.89,21.89,0,0,1,2.67-5.31.64.64,0,0,1,.55-.29H52c.5,0,.7.67.35,1.24-1.07,1.7-4.19,7.15-2.72,7.53.75.1,2-.85,3.59-2.67A33.82,33.82,0,0,0,55.68,15a.42.42,0,0,1,.6-.13A.44.44,0,0,1,56.43,15.45Zm-4.71-3.94a1.4,1.4,0,0,1,0-1.27A.85.85,0,0,1,53,9.92c.3.22.6.82-.33,1.44,0,0-.29.23-.42.35A.36.36,0,0,1,51.72,11.51Z"/><path class="cls-3" d="M67.42,15.45a38.28,38.28,0,0,1-2.54,3.41c-1.67,2-3,3-4.11,3-.08,0-.15,0-.23,0a2.12,2.12,0,0,1-2-1.94,7.76,7.76,0,0,1-1.45,1.47,2.32,2.32,0,0,1-1.27.47,1.37,1.37,0,0,1-.27,0,2.72,2.72,0,0,1-.6-.23c-.57-.34-1.34-1.14-1-3,.47-2.76,3.84-7.27,5.78-6.13,0,0,.8.35.87,1.77a16.36,16.36,0,0,1,1.05-1.67.61.61,0,0,1,.55-.29H63c.52,0,.72.67.35,1.24-1.07,1.7-4.14,7.1-2.67,7.45.75.13,2-.82,3.59-2.64A37.55,37.55,0,0,0,66.7,15a.42.42,0,0,1,.6-.13A.43.43,0,0,1,67.42,15.45Zm-9.57,3.81a9.39,9.39,0,0,0,.6-.82c.42-.92,1.79-4.73.92-4.86s-3,2.87-3.64,4.86,0,2.44.08,2.49C56.28,20.91,57,20.31,57.85,19.26Z"/><text class="cls-4" transform="translate(62.15 28.21)">AÑOS</text><path class="cls-5" d="M67.41,28.68c1,.34,2.06.8,3.2,1.3A33.31,33.31,0,0,0,76.34,32a7.51,7.51,0,0,0,2.57.16A3.76,3.76,0,0,0,81,31.27l.19-.18a1.8,1.8,0,0,0,.5-1.09,1.62,1.62,0,0,0-.48-1.13,4.23,4.23,0,0,0-.76-.5c-.14-.14.24-.32.61,0l.16.13a1.89,1.89,0,0,1,.7,1.48,2.17,2.17,0,0,1-.76,1.46,4.07,4.07,0,0,1-2.22,1,7.71,7.71,0,0,1-2.65-.16,31.82,31.82,0,0,1-5.79-2.08c-1.19-.52-2.33-1-3.35-1.33"/><path class="cls-6" d="M45.24,23.89c-.92-.3-1.93-.72-3-1.16a29.43,29.43,0,0,0-5.36-1.85,7.22,7.22,0,0,0-2.41-.12,3.72,3.72,0,0,0-2,.91l-.18.17a1.78,1.78,0,0,0-.48,1,1.48,1.48,0,0,0,.44,1.06,4.82,4.82,0,0,0,.7.46c.14.13-.22.3-.57,0l-.15-.12a1.77,1.77,0,0,1-.64-1.38,2.07,2.07,0,0,1,.73-1.38,4,4,0,0,1,2.1-1,7.12,7.12,0,0,1,2.48.12,29.92,29.92,0,0,1,5.41,1.86c1.11.47,2.18.91,3.12,1.2"/><path class="cls-7" d="M50.8,26.9,49,23.71h.47l1.61,2.94,3.16-2.94h.56L51.28,27l1.87,3.34h-.47L51,27.21l-3.32,3.08H47.1Z"/><path class="cls-8" d="M55.68,23.71h.44l1.05,6.11,4.3-6.11H62l-4.74,6.64h-.34Z"/><text class="cls-9" transform="translate(36.46 28.21)">MIS</text></svg>