<svg id="Capa_1" data-name="Capa 1" xmlns="http://www.w3.org/2000/svg" viewBox="0 0 104.74 56.16"><defs><style>.cls-1{fill:#ee7091;}</style></defs><title>mis15</title><path class="cls-1" d="M70.05,30.3a7.92,7.92,0,0,0-1,1.21,32.36,32.36,0,0,0-4.42,11.73,2,2,0,0,1-.09.26,2.05,2.05,0,0,1-2-1.13,11.24,11.24,0,0,1-1.14-4.73,4.58,4.58,0,0,0-.21-1.3A22.84,22.84,0,0,1,59.75,39a23.66,23.66,0,0,1-2.46,3.09,3.14,3.14,0,0,1-2.7.9c-1.75-.2-2.67-1.35-2.89-3.56,0-.4-.08-.81-.12-1.24a23.83,23.83,0,0,1-1.83,3,6,6,0,0,1-2.19,1.64A3.15,3.15,0,0,1,43.13,41,38.56,38.56,0,0,1,42,36.88a6.63,6.63,0,0,1-.34.72c-.82,1.34-1.59,2.72-2.5,4A3.05,3.05,0,0,1,36.47,43a2.7,2.7,0,0,1-2.32-1.32,7.47,7.47,0,0,1-.82-5.47c.29-1.81.71-3.6,1-5.41a18.3,18.3,0,0,0-.13-2.65c0-.25.08-.68.22-.74a8.17,8.17,0,0,1,2.33-.6c.83,0,1.36.6,1.52,1.48a12.5,12.5,0,0,1-.47,5.19c-.48,1.93-1,3.86-1.42,5.81a4.58,4.58,0,0,0,0,1.73c.18,1,.84,1.22,1.57.51a4.33,4.33,0,0,0,1-1.37c1.13-2.61,2.24-5.23,3.27-7.89a2.93,2.93,0,0,0-.22-2.8.69.69,0,0,1,.08-.58,1.89,1.89,0,0,1,3.24.12,7.71,7.71,0,0,1,.29,4.82c-.31,1.92-.57,3.85-.73,5.78-.09.93,0,2,1,2.42a2.24,2.24,0,0,0,2.57-1,15,15,0,0,0,1.82-3.13c.72-1.74,1.26-3.55,1.87-5.34a2.89,2.89,0,0,0-.3-2.55A1,1,0,0,1,52,29a2.43,2.43,0,0,1,2.74-.78,1.92,1.92,0,0,1,1.37,2.05,20,20,0,0,1-.38,3.79c-.35,1.74-.88,3.44-1.28,5.17a5.72,5.72,0,0,0-.11,1.65c.05.91.62,1.32,1.38.88a6.38,6.38,0,0,0,2-1.69,26.79,26.79,0,0,0,3.48-7.77,6.36,6.36,0,0,0-.78-4.41,1.77,1.77,0,0,1,3.07-.45,8.13,8.13,0,0,1,1.31,2.81c.35,1.33.46,2.73.71,4.26a7.66,7.66,0,0,1,.47-.81c1.26-1.73,2.47-3.51,3.83-5.17a3.69,3.69,0,0,1,3.35-1.37,2.07,2.07,0,0,1,2.1,2.2,8.72,8.72,0,0,1-.44,2.52c-1.27,4-2.22,8-1.79,12.28A11.94,11.94,0,0,0,74,48c.93,2,2.86,2,4.09.27a14.83,14.83,0,0,0,2.21-6.89c0-.23-.21-.54-.4-.75a8.57,8.57,0,0,1-.07-10.81,6,6,0,0,1,6.61-1.92c2.72.81,3.28,3.43,2.15,5.7a2.3,2.3,0,0,1-1.39,1c-.59.17-1-.24-1.06-.92a2,2,0,0,0,1.59-2.32,2.14,2.14,0,0,0-1.32-1.95,2.1,2.1,0,0,0-2.26.54,7,7,0,0,0-2.27,4,8.48,8.48,0,0,0,1,6.34,2.55,2.55,0,0,0,3.25,1.35,7.74,7.74,0,0,0,3.49-2.07c.71-.69,1.33-1.47,2-2.2a1.89,1.89,0,0,0,.49-1.51,7.16,7.16,0,0,1,8.77-7.49,2,2,0,0,1,1.67,2.51c-.39,2.85-2.64,4.34-5.72,3.7A7.11,7.11,0,0,0,96.51,38a8.13,8.13,0,0,0,.7,2.63,2.46,2.46,0,0,0,3.73,1.1,6.16,6.16,0,0,0,2.87-3.89,2.49,2.49,0,0,0,0-1.3c-.16-.53-.32-1,.33-1.23a1,1,0,0,1,1.44.56,4.77,4.77,0,0,1,.15,2.12,6.84,6.84,0,0,1-13.14.61c-3,3.59-6.44,5.45-11,3.5a33.06,33.06,0,0,1-.92,3.62,16.25,16.25,0,0,1-1.74,3.55c-1.23,1.79-3.15,2-5,.81-2.06-1.36-2.9-3.46-3.42-5.75a34.19,34.19,0,0,1-.59-9.63c.09-1.41.22-2.82.34-4.23Zm27,3.52a8.25,8.25,0,0,0,1.5,0,3.4,3.4,0,0,0,2.5-3c0-.34,0-.84-.23-1a1.15,1.15,0,0,0-1,.13A6.35,6.35,0,0,0,97.08,33.82Z" transform="translate(-1 -1)"/><path class="cls-1" d="M16.37,49c2.28,1.45,4.43,3,6.71,4.25a7.57,7.57,0,0,0,6.76.64,4.42,4.42,0,0,0,2.39-2.17,1.48,1.48,0,0,0-.2-1.91c.41-.74,1-.73,1.72-.61a1.67,1.67,0,0,1,1.32,1.42,4.81,4.81,0,0,1-2,5,8.3,8.3,0,0,1-8.85.3,58.82,58.82,0,0,1-5.93-4c-.88-.6-1.76-1.21-2.6-1.86A1.08,1.08,0,0,0,14.45,50a17.74,17.74,0,0,1-7.89,1.77A11.25,11.25,0,0,1,4,51.32C2,50.8,1.8,48.12,3,47A5.55,5.55,0,0,1,7.4,45.52a15,15,0,0,1,6.38,2.11,1.56,1.56,0,0,0,1.89-.13c4.78-3.19,7.9-7.74,10-13a32,32,0,0,0,2.46-12.93,16.62,16.62,0,0,0-2-8.24,9.44,9.44,0,0,0-15.29-1.59A22.53,22.53,0,0,0,5.64,22.65,29.86,29.86,0,0,0,6,37.26a15.28,15.28,0,0,0,1.13,2.67c1.5,2.83,4.26,2.73,6.29,1.11a8.83,8.83,0,0,0,2.8-4.52c.72-2.4,1.28-4.86.51-7.37A4,4,0,0,0,13.4,26c-.08-1,.23-1.39,1.17-1.47A3,3,0,0,1,17.4,26a8.47,8.47,0,0,1,1.19,5.75,13.86,13.86,0,0,1-3.8,8.91C11.45,44,8.17,43.85,4.71,40.08a14.7,14.7,0,0,1-3.56-8.79A25.91,25.91,0,0,1,4.54,15.1c2.4-4,5.77-6.88,10.39-7.68,5.31-.92,10.13.17,13.83,4.54a13.33,13.33,0,0,1,3,8.38C32.21,32,27.64,41,18.34,47.65Zm-2.8-.21c-1.83-.9-3.4-1.84-5.21-2a9.47,9.47,0,0,0-2.9.28,1.81,1.81,0,0,0-1.38,1.76c0,.85.71,1.2,1.36,1.51a3.1,3.1,0,0,0,.86.21C8.85,50.93,11.09,49.93,13.57,48.83Z" transform="translate(-1 -1)"/><path class="cls-1" d="M45.49,5.66l3.81,5.28,2.31-7.4,4.27,6,2.38-5.43v6.3l6.56-6,.16.1c-3,6.92-6,13.85-9,20.85a4.45,4.45,0,0,0-4.72.33L39.42,8l.09-.11,7.66,3.93-1.84-6Z" transform="translate(-1 -1)"/><path class="cls-1" d="M72.39,16.68c0,1.87,0,3.73,0,5.59,0,.58.33.59.7.7.15.05.26.26.38.4-.15.07-.3.21-.45.22-.71,0-1.41,0-2.12,0-.17,0-.32-.18-.48-.27a2.1,2.1,0,0,1,.46-.34,3.8,3.8,0,0,1,.72-.17V15.41c-.25-.47-1.23.14-1.08-.91.87,0,1.71,0,2.54,0,.21,0,.47.32.56.55.81,2,1.58,4.06,2.44,6.32l2.5-6.87h2.87c0,.59,0,.59-.93.74v7.59a6.49,6.49,0,0,1,.79.16c.12,0,.19.2.29.3-.11.1-.22.26-.33.27-1.08,0-2.17,0-3.26,0-.11,0-.22-.16-.33-.25.09-.11.16-.27.27-.32a4.59,4.59,0,0,1,.75-.18V16.44c-.16.37-.26.57-.33.78C77.63,19.14,77,21.07,76.22,23c-.1.25-.4.57-.61.57A.94.94,0,0,1,75,23c-.72-1.8-1.39-3.62-2.09-5.43-.12-.32-.26-.64-.39-1Z" transform="translate(-1 -1)"/><path class="cls-1" d="M54.29,52.68c0-3.12,2.4-5.16,5.05-4.22a4.4,4.4,0,0,1,2,1.51,5.16,5.16,0,0,1-.48,6.1,3.8,3.8,0,0,1-4.15.79C55.11,56.2,54.28,54.73,54.29,52.68Zm1.53,0c.26,1,.44,1.9.77,2.8A1.57,1.57,0,0,0,58.2,56.5a1.63,1.63,0,0,0,1.54-1,6.36,6.36,0,0,0,0-5.55,1.67,1.67,0,0,0-3.1,0A16.87,16.87,0,0,0,55.82,52.64Z" transform="translate(-1 -1)"/><path class="cls-1" d="M51.79,54.3c0-1.77,0-3.29,0-4.81,0-.14-.43-.27-.66-.38s-.51-.23-.76-.34l.09-.28h3.28c-.27.28-.42.57-.57.57-.69,0-.7.42-.7.94,0,2.28,0,4.56,0,6.85-.53.32-.81,0-1.08-.37-1.32-1.87-2.65-3.73-4-5.6-.07-.11-.16-.2-.34-.42v5.66c.33.39,1.22-.17,1.29.8H45.29l-.11-.25,1.13-.62V51.13c0-.39,0-.78,0-1.17s0-.89-.65-.91c-.14,0-.28-.26-.42-.4l.1-.21c.66,0,1.33,0,2,0a1,1,0,0,1,.59.45C49.18,50.63,50.4,52.36,51.79,54.3Z" transform="translate(-1 -1)"/><path class="cls-1" d="M93.26,16.78h-.88a4,4,0,0,1-.16-.64c0-.6-.13-1.1-.89-1.14s-1.62.26-1.83.92A1.36,1.36,0,0,0,90,17.61c.72.44,1.5.76,2.25,1.15a2.58,2.58,0,0,1,1.53,2.29,2.47,2.47,0,0,1-1.58,2.48,5.07,5.07,0,0,1-4-.17,1,1,0,0,1-.42-.67,11.69,11.69,0,0,1,0-1.46h1a2.28,2.28,0,0,1,.18.68c-.05,1,.57,1.2,1.35,1.24A1.73,1.73,0,0,0,92.22,22c.21-.78-.09-1.35-1-1.79-.56-.28-1.15-.51-1.7-.81A2.75,2.75,0,0,1,88,16.25a2.72,2.72,0,0,1,2.73-1.95c.25,0,.49,0,.74,0C93.24,14.38,93.61,14.88,93.26,16.78Z" transform="translate(-1 -1)"/><path class="cls-1" d="M68.22,50.58l-.44,0-.37,0a3.83,3.83,0,0,1-.15-.63c0-.59-.17-1-.88-1s-1.37.12-1.66.9a1.19,1.19,0,0,0,.5,1.52c.62.39,1.31.66,2,1a2.46,2.46,0,0,1,1.54,2,2.42,2.42,0,0,1-2.37,2.78,6.57,6.57,0,0,1-1.47,0c-1.71-.19-1.95-.55-1.66-2.4l.82,0c0,.17.08.29.1.42a1.56,1.56,0,0,0,2.46,1.19,1.31,1.31,0,0,0,.09-2.3c-.6-.38-1.28-.62-1.9-1a2.57,2.57,0,0,1-1.5-1.85A2.24,2.24,0,0,1,65,48.41a5,5,0,0,1,1.44-.15C68.2,48.3,68.55,48.76,68.22,50.58Z" transform="translate(-1 -1)"/><path class="cls-1" d="M42.09,56.1c-.32-1.85-.34-1.87-2.68-1.8-.68,0-.95.49-1.07,1.8l1,.55-.1.26H36.62l-.14-.16c.17-.15.33-.42.5-.42.58,0,.7-.38.85-.82.68-2.07,1.42-4.13,2.06-6.22.22-.71.51-1.06,1.34-.81l2.26,6.76c.18.55.24,1.17,1,1.19.08,0,.15.27.27.49H41.17l-.12-.24Zm-.72-2.45-1.16-3.6-1.16,3.6Z" transform="translate(-1 -1)"/><path class="cls-1" d="M82.74,14.52h3.81c.06.58.06.58-1,.75v7.58a6.74,6.74,0,0,1,.78.16c.12,0,.2.19.29.29-.1.1-.21.28-.31.28-1.12,0-2.23,0-3.34,0-.11,0-.21-.18-.32-.28.1-.1.21-.28.31-.28.78,0,.84-.45.83-1.08q0-3,0-6c0-.5-.1-.78-.67-.77-.18,0-.37-.24-.56-.37Z" transform="translate(-1 -1)"/><path class="cls-1" d="M52.83,46.12c-.27,0-.51,0-.63-.12-1-.91-2-.63-3-.13a6.07,6.07,0,0,1-1.83.57,2,2,0,0,1-2-1.19c.36,0,.64,0,.75.09a1.9,1.9,0,0,0,2.61.13,3.51,3.51,0,0,1,2.64-.56A1.63,1.63,0,0,1,52.83,46.12Z" transform="translate(-1 -1)"/><path class="cls-1" d="M66.11,1.68c.29.45.61.74.57.93s-.41.46-.64.68c-.2-.22-.57-.44-.57-.65S65.79,2.12,66.11,1.68Z" transform="translate(-1 -1)"/><path class="cls-1" d="M38.26,7.05c-.29-.44-.61-.72-.57-.91s.4-.45.62-.67c.19.22.52.43.54.66S38.56,6.61,38.26,7.05Z" transform="translate(-1 -1)"/><path class="cls-1" d="M52.2,1.58c-.42.32-.69.68-.86.63s-.44-.41-.66-.63c.2-.21.39-.55.62-.58S51.76,1.28,52.2,1.58Z" transform="translate(-1 -1)"/></svg>